@startuml

    !include lexakai.theme
    
    title "com.telenav.mesakit.plugins.josm.library"
    
    Layer <|-- BaseJosmLayer
    abstract class BaseJosmLayer
    {
        --(constructors)--
        #BaseJosmLayer(BaseJosmPlugin)
        #BaseJosmLayer(BaseJosmPlugin, String)
        --
        +BaseJosmLayer activeLayer()
        +void forceRepaint()
        +BaseJosmPanel panel()
        +BaseJosmPlugin plugin()
        #Rectangle2D awtRectangleForRectangle(Rectangle)
        #Rectangle bounds()
        #Font font(Graphics2D, String, int width)
        #Location location(LatLon)
        #Location locationForPoint(Point2D)
        #void onDestroy()
        #void onPaint(Graphics2D, MapView, Bounds)
        #void onPopup(Component parent, int x, int y)
        #void onPreviousSelection()
        #Point2D pointForLocation(Location)
        #void popup(MouseEvent)
        #Rectangle rectangle(Bounds)
        #Stroke stroke()
        #float strokeWidth()
        #Distance viewWidth()
        --(collection)--
        +void add()
        --(extension points)--
        #boolean onSelect(MouseEvent)
        --(iteration)--
        #void onNextSelection()
        --(lifecycle)--
        +void onInitialize()
    }
    
    ToggleDialog <|-- BaseJosmPanel
    abstract class BaseJosmPanel
    {
        --(constructors)--
        #BaseJosmPanel(BaseJosmPlugin)
        --
        +void hidePanel()
        +BaseJosmLayer layer()
        +BaseJosmPlugin plugin()
        +void refresh()
        +void showPanel()
        #void onActiveLayerChanged()
        #void onDestroyed()
        #void onHide()
        #void onLayerAdded()
        #void onLayerRemoving(Layer)
        #void onLayerReorder()
        #void onRefresh()
        #void onShow()
        --(collection)--
        +void overrideMenuAcceleratorKeys(JTextField)
        --(lifecycle)--
        +void onInitialize()
    }
    
    Plugin <|-- BaseJosmPlugin
    abstract class BaseJosmPlugin
    {
        --(constructors)--
        #BaseJosmPlugin(PluginInformation, Class<? extends BaseJosmLayer>)
        --
        +BaseJosmLayer createLayer()
        +BaseJosmLayer createLayer(String name)
        +void destroyLayer()
        +BaseJosmPanel panel()
        +Shortcut shortcut()
        +String tooltip()
        +void zoomTo(Rectangle bounds)
        #void onActiveLayerChanged()
        #void onLayerAdded()
        #void onLayerRemoving(Layer)
        #int preferredPanelHeight()
        --(checks)--
        +boolean isLayerOfPlugin(Layer)
        #boolean isMultiLayer()
        --(collection)--
        +MapView mapView()
        #int shortCutKey()
        --(factory)--
        #BaseJosmLayer newLayer(String name)
        #BaseJosmPanel newPanel()
        --(functional)--
        +BaseJosmLayer selectedLayer()
        --(naming)--
        +String iconName()
        +String name()
        +String userName()
    }
    
    class Colors
    {
        --
        +Color colorForIncidentSeverity(String severity)
    }
    
    class JosmMainWrapper
    {
        --
        +void main(String[] args)
    }
    
@enduml

