@startuml

    !include lexakai.theme
    
    title "com.telenav.mesakit.map.data.formats.pbf.processing.readers"
    
    abstract BaseRepeater
    abstract BasePbfReader
    
    interface PbfDataSource
    
    BaseRepeater <|-- BasePbfReader
    PbfDataSource <|-- BasePbfReader
    BasePbfReader o-- Resource
    BasePbfReader o-- PbfDataStatistics
    BasePbfReader o-- PbfDataProcessor
    abstract class BasePbfReader
    {
        --(constructors)--
        #BasePbfReader(Resource)
        --
        +PbfDataStatistics dataStatistics()
        +void process(Entity)
        +void processBounds(Bound)
        --(lifecycle)--
        +void end()
        +void start(PbfDataProcessor)
        --(math)--
        +Identifier maximumNodeIdentifier()
        +Identifier maximumRelationIdentifier()
        +Identifier maximumWayIdentifier()
        --(metadata)--
        +void processMetadata(Map<String,Object> metadata)
        --(read)--
        +BasePbfReader noProgress()
    }
    
    BaseRepeater <|-- ParallelPbfReader
    PbfDataSource <|-- ParallelPbfReader
    class ParallelPbfReader
    {
        --(constructors)--
        +ParallelPbfReader(Resource, Count)
        --
        +void nodes(Count nodes)
        +void relations(Count relations)
        +void ways(Count ways)
    }
    
    BasePbfReader <|-- SerialPbfReader
    class SerialPbfReader
    {
        --(constructors)--
        +SerialPbfReader(Resource)
    }
    
@enduml

