@startuml

    !include lexakai.theme
    
    title "com.telenav.mesakit.map.overpass"
    
    abstract BaseComponent
    abstract BaseRepeater
    
    BaseRepeater <|-- OverpassDataDownloader
    OverpassDataDownloader --> OsmToPbfConverter : "converts data with"
    OverpassDataDownloader --> OverpassOsmResource : "downloads data with"
    OverpassDataDownloader o-- Folder : "caches data in"
    class OverpassDataDownloader
    {
        --(constructors)--
        +OverpassDataDownloader(Folder)
        --(filesystem)--
        +File osm(String descriptor, Rectangle bounds)
        +File pbf(String baseName, Rectangle bounds)
    }
    
    BaseComponent <|-- OverpassOsmResource
    OverpassOsmResource --> Folder : "copies data to"
    class OverpassOsmResource
    {
        --(constructors)--
        +OverpassOsmResource(Rectangle)
        --(filesystem)--
        +void safeCopyTo(File destination)
    }
    
    Project <|-- OverpassProject
    class OverpassProject
    {
        --(constructors)--
        #OverpassProject()
        --
        +OverpassProject get()
    }
    
@enduml

